<svg xmlns="http://www.w3.org/2000/svg" width="226" height="193" viewBox="0 0 226 193" fill="none">
  <path d="M134.856 172.556L19.4894 115.683C8.10559 110.071 5.15139 97.1466 12.8924 86.8124L55.9516 29.3122C63.6926 18.978 79.19 15.1499 90.5738 20.7619L205.94 77.6347C217.324 83.2466 220.278 96.1709 212.537 106.505L169.478 164.005C161.737 174.34 146.24 178.168 134.856 172.556Z" fill="#FF9E10"/>
  <path d="M134.131 174.026L18.7644 117.153C12.8806 114.252 8.8708 109.431 7.46753 103.577C6.03464 97.5912 7.49577 91.2858 11.5795 85.8322L54.6423 28.3339C62.8187 17.4176 79.2609 13.3622 91.2965 19.2954L206.663 76.1683C212.547 79.0688 216.556 83.89 217.96 89.7442C219.393 95.73 217.933 102.032 213.848 107.489L170.789 164.989C162.612 175.905 146.17 179.961 134.134 174.028L134.131 174.026ZM89.8525 22.2337C79.1602 16.9627 64.5408 20.58 57.2657 30.2978L14.2029 87.7961C10.7123 92.4574 9.45154 97.7904 10.6552 102.817C11.8273 107.707 15.2226 111.757 20.2157 114.218L135.578 171.089C146.271 176.36 160.89 172.743 168.165 163.025L211.224 105.525C214.715 100.864 215.976 95.5308 214.772 90.5042C213.6 85.6146 210.208 81.5662 205.212 79.103L89.8525 22.2337Z" fill="#231F20"/>
  <path d="M164.678 139.972C165.44 135.46 164.8 131.152 162.621 127.126C159.941 122.173 155.859 118.904 150.445 117.325C148.674 116.807 146.862 116.576 145.023 116.564C144.851 116.565 144.667 116.61 144.448 116.461C144.696 116.295 144.896 116.155 145.104 116.024C146.993 114.813 148.882 113.602 150.676 112.254C151.282 111.801 151.857 111.31 152.43 110.823C152.903 110.421 153.142 109.927 153.16 109.27C153.205 107.6 153.32 105.933 153.413 104.264C153.423 104.098 153.359 103.891 153.586 103.777C154.011 103.901 154.375 104.212 154.856 104.305C155.144 103.83 155.349 103.35 155.585 102.881C155.82 102.413 156.051 101.936 156.283 101.466C156.515 100.995 156.779 100.486 157.011 99.9885C157.227 99.5142 157.538 99.0828 157.658 98.5116C157.031 98.1577 156.383 97.8743 155.757 97.5474C155.128 97.2242 154.47 96.9625 153.837 96.5563C153.843 96.3071 153.847 96.0616 153.859 95.8105C154.023 92.7008 154.186 89.5946 154.351 86.4848C154.381 85.9141 154.419 85.3434 154.441 84.7692C154.463 84.1318 154.218 83.606 153.735 83.1971C153.563 83.0536 153.356 82.9428 153.15 82.8411C149.783 81.1811 146.412 79.5193 143.041 77.8665C142.896 77.7951 142.751 77.7237 142.601 77.6721C141.789 77.3933 141.075 77.6085 140.628 78.3332C139.991 79.3604 139.876 80.4786 140.238 81.6338C140.349 81.9943 140.578 82.2692 140.918 82.4641C142.05 83.1167 143.172 83.782 144.295 84.4436C145.499 85.15 146.704 85.8563 147.906 86.5662C148.064 86.6574 148.204 86.7758 148.394 86.9101C147.621 93.6269 146.854 100.288 146.081 106.968C137.977 111.858 129.884 116.744 121.784 121.635C121.187 121.458 120.615 121.293 120.047 121.121C117.787 120.439 115.58 119.612 113.456 118.569C112.493 118.094 111.548 117.574 110.615 117.038C109.041 116.132 107.589 115.06 106.276 113.806C105.262 112.833 104.371 111.764 103.701 110.52C103.24 109.667 102.913 108.768 102.767 107.805C102.452 105.741 103.058 103.91 104.204 102.225C105.049 100.985 106.126 99.9592 107.302 99.0355C108.785 97.8717 110.393 96.9094 112.073 96.0586C115.248 94.4466 118.58 93.2309 121.98 92.1935C122.112 92.1548 122.247 92.127 122.375 92.0775C123.744 91.5643 124.103 89.8147 123.032 88.8187C122.803 88.607 122.514 88.4461 122.228 88.3051C105.979 80.2905 89.729 72.2796 73.477 64.2722C73.314 64.1919 73.1511 64.1025 72.9792 64.0403C71.9064 63.642 70.8098 64.15 70.4078 65.2211C70.2121 65.7457 70.2583 66.2546 70.4977 66.7552C70.8393 67.4682 71.0241 68.2253 71.0285 69.0107C71.0337 69.6028 70.9955 70.2006 70.9212 70.7896C70.7794 71.9079 70.4208 72.9733 70.0169 74.0209C69.7054 74.826 69.7127 74.8296 68.9224 75.2276C60.7581 79.3267 52.5884 83.4276 44.4241 87.5267C44.2387 87.6198 44.0496 87.7021 43.8769 87.815C43.4434 88.1009 43.1332 88.4836 43.0152 89.006C42.825 89.8574 43.1564 90.6734 43.8939 91.1495C44.0262 91.2372 44.1746 91.3013 44.3194 91.3727C46.8865 92.6383 49.4537 93.9038 52.0245 95.1712C52.2236 95.2693 52.4087 95.4326 52.7134 95.3622C52.7936 95.1812 52.8864 94.9749 52.9772 94.7632C53.5725 93.3913 54.3344 92.1197 55.2884 90.9607C60.743 84.3421 70.6004 83.3911 77.2289 89.0082C82.9377 93.8433 84.4129 102.217 80.4672 108.761C80.4135 108.851 80.387 108.96 80.3283 109.106C80.6198 109.254 80.8787 109.396 81.1394 109.524C94.2866 116.005 107.434 122.487 120.585 128.97C120.708 129.03 120.833 129.087 120.954 129.152C121.756 129.579 122.505 129.52 123.288 129.037C124.594 128.232 125.931 127.483 127.259 126.715C127.367 126.651 127.471 126.54 127.625 126.621C127.629 126.641 127.645 126.662 127.642 126.679C127.602 126.785 127.563 126.892 127.51 126.992C126.866 128.187 126.335 129.428 125.96 130.728C125.763 131.41 125.572 132.099 125.459 132.795C125.272 133.968 125.949 135.107 127.036 135.566C128.097 136.017 129.315 135.718 130.085 134.823C130.445 134.402 130.589 133.911 130.702 133.39C131.189 131.159 132.144 129.15 133.567 127.367C138.391 121.334 147.17 119.923 153.716 124.694C158.279 128.019 160.446 133.529 159.486 139.092C159.456 139.271 159.416 139.453 159.399 139.634C159.28 140.898 160.068 142.074 161.269 142.423C162.5 142.783 163.829 142.196 164.375 141.025C164.527 140.699 164.617 140.334 164.676 139.976L164.678 139.972Z" fill="#231F20"/>
  <path d="M150.603 126.9C144.216 123.706 136.005 126.027 132.558 132.938C129.205 139.657 131.997 147.68 138.612 150.977C145.35 154.299 153.343 151.497 156.612 144.958C160.013 138.16 157.072 130.139 150.601 126.904L150.603 126.9ZM143.257 141.637C141.57 140.806 141.216 138.939 141.873 137.607C142.646 136.039 144.517 135.494 145.958 136.24C147.443 137.008 148.041 138.789 147.292 140.282C146.713 141.51 145.035 142.514 143.253 141.636L143.257 141.637Z" fill="#231F20"/>
  <path d="M73.1048 88.6997C66.6219 85.5353 58.4903 88.0708 55.1543 94.8561C51.8736 101.529 54.629 109.607 61.3002 112.864C68.2247 116.229 76.1671 113.118 79.2993 106.692C82.5333 100.058 79.7741 91.9515 73.1048 88.6997ZM65.9017 103.512C64.3593 102.752 63.7426 100.962 64.5211 99.4287C65.3781 97.7359 67.2972 97.4127 68.5576 98.088C70.062 98.8342 70.6624 100.602 69.9217 102.114C69.1845 103.609 67.3917 104.251 65.9017 103.512Z" fill="#231F20"/>
  <path d="M77.6889 64.1082C85.6656 68.0405 93.6133 71.9585 101.561 75.8765C101.659 75.9247 101.769 75.9475 101.876 75.9867C102.122 75.7885 102.205 75.519 102.323 75.28C103.66 72.568 104.997 69.856 106.334 67.1441C107.043 65.7066 107.751 64.2691 108.462 62.828C108.57 62.6072 108.706 62.3952 108.728 62.1224C108.512 61.9215 108.254 61.8254 108.011 61.7058C105.031 60.2368 102.055 58.7695 99.075 57.3005C98.8505 57.1898 98.626 57.0702 98.3961 56.9703C98.2785 56.9168 98.1447 56.896 97.9874 56.8499C97.7892 57.2428 97.5999 57.6085 97.416 57.9725C97.2447 58.3201 97.0824 58.6766 96.9002 59.0189C96.7072 59.3738 96.6066 59.7878 96.2582 60.1111C95.8184 59.9259 95.3894 59.7098 94.9674 59.4883C94.5492 59.2686 94.0862 59.1304 93.7051 58.7895C93.8139 58.5506 93.9012 58.3461 93.9976 58.1416C94.3617 57.4029 94.7276 56.6606 95.0918 55.922C95.1596 55.7844 95.1948 55.6308 95.2606 55.4426C94.9962 55.3033 94.7536 55.1747 94.511 55.0551C91.6976 53.6681 88.8806 52.2794 86.0672 50.8925C85.6762 50.6997 85.2851 50.507 84.8959 50.3196C84.7801 50.2625 84.6463 50.2416 84.4908 50.1919C84.3586 50.4418 84.2335 50.6591 84.1246 50.88C82.079 55.0294 80.0334 59.1789 77.9879 63.3283C77.9272 63.4514 77.8592 63.571 77.8058 63.6977C77.7595 63.8189 77.7314 63.949 77.6871 64.1118L77.6889 64.1082Z" fill="#231F20"/>
  <path d="M85.8459 47.4889L86.5881 47.8548C89.3182 49.2007 92.0483 50.5465 94.7784 51.8924C95.2708 52.1352 106.365 57.6043 109.649 59.2233C109.787 59.2911 109.94 59.3264 110.09 59.3779C110.166 59.28 110.234 59.2146 110.273 59.1349C110.91 57.8423 111.548 56.5496 112.185 55.257C112.231 55.1629 112.231 55.0455 112.259 54.9154C111.987 54.7725 111.75 54.642 111.507 54.5224C103.954 50.799 96.3978 47.0737 88.8448 43.3503C88.6999 43.2789 88.5587 43.2002 88.4121 43.1415C88.2909 43.0952 88.1607 43.0671 87.9944 43.0211C87.3161 44.397 86.6485 45.7512 85.9827 47.1018C85.9345 47.1995 85.908 47.308 85.8459 47.4889Z" fill="#231F20"/>
</svg>