<svg xmlns="http://www.w3.org/2000/svg" width="39" height="44" fill="none"><g fill="#fff" clip-path="url(#a)"><path d="M20.567 33.324c-3.48 0-6.37-1.143-8.668-3.43-2.298-2.286-3.447-5.238-3.447-8.856 0-3.618 1.148-6.598 3.447-8.874 2.298-2.275 5.187-3.413 8.668-3.413 2.685 0 5.057.655 7.116 1.963 2.06 1.31 3.396 3.191 4.01 5.648l-5.46 1.57c-.296-1.137-.95-2.053-1.963-2.747-1.012-.694-2.247-1.04-3.703-1.04-1.843 0-3.35.636-4.522 1.91-1.172 1.275-1.757 2.936-1.757 4.984 0 2.047.585 3.737 1.757 5 1.172 1.262 2.68 1.893 4.522 1.893 1.456 0 2.691-.347 3.703-1.04 1.012-.695 1.678-1.61 1.997-2.748l5.426 1.57c-.614 2.457-1.95 4.34-4.01 5.648-2.06 1.309-4.432 1.962-7.116 1.962ZM1.664 43.006c-.477 0-.873-.158-1.19-.475-.316-.316-.474-.726-.474-1.23 0-.505.157-.919.47-1.242.315-.323.712-.485 1.194-.485.358 0 .672.086.942.258.27.172.447.407.53.705l-.488.172a.737.737 0 0 0-.337-.46 1.135 1.135 0 0 0-.626-.173c-.32 0-.588.114-.801.34-.214.227-.32.52-.32.878s.106.655.32.88c.213.225.482.337.807.337.235 0 .44-.058.62-.175a.752.752 0 0 0 .337-.464l.488.164c-.083.303-.26.54-.53.712-.27.172-.584.258-.942.258ZM5.474 39.574c.385 0 .695.11.928.33.234.22.35.53.35.928v2.105h-.55v-1.981c0-.289-.077-.508-.233-.657-.156-.15-.367-.224-.633-.224a.798.798 0 0 0-.633.272c-.161.182-.241.428-.241.74v1.85h-.55v-4.814h.55v1.966c.22-.343.557-.516 1.01-.516l.002.001ZM10.502 42.53c-.326.317-.734.476-1.224.476s-.899-.157-1.225-.472c-.325-.314-.488-.723-.488-1.227 0-.505.162-.937.485-1.256.323-.319.733-.478 1.228-.478.494 0 .898.16 1.224.478.325.32.488.737.488 1.256 0 .518-.164.907-.488 1.224Zm-1.224-.02c.325 0 .598-.111.818-.334.22-.222.33-.514.33-.877 0-.362-.109-.668-.327-.89a1.102 1.102 0 0 0-.821-.334c-.33 0-.605.111-.822.334-.218.223-.327.52-.327.89 0 .371.11.655.327.877.217.223.492.334.822.334ZM16.244 39.643h.57l-1.168 3.294h-.605l-.95-2.607-.941 2.607h-.613l-1.162-3.294h.57l.936 2.703.949-2.703h.529l.949 2.703.935-2.703h.001ZM18.906 43.006c-.5 0-.916-.162-1.248-.485-.332-.323-.499-.743-.499-1.262 0-.518.165-.935.496-1.265.33-.33.747-.495 1.25-.495.39 0 .734.096 1.029.288.296.193.482.466.56.819l-.825.254a.594.594 0 0 0-.247-.381.788.788 0 0 0-.468-.141.775.775 0 0 0-.59.25c-.156.168-.235.389-.235.664s.078.495.234.66a.778.778 0 0 0 .591.247.803.803 0 0 0 .468-.137.58.58 0 0 0 .247-.379l.825.248a1.265 1.265 0 0 1-.56.825 1.84 1.84 0 0 1-1.028.288v.002ZM22.585 43.006c-.509 0-.93-.162-1.266-.485-.334-.323-.502-.746-.502-1.269 0-.522.167-.94.5-1.265.331-.326.748-.488 1.247-.488.5 0 .887.153 1.204.46.316.308.474.711.474 1.21 0 .065-.006.166-.02.303h-2.455c.032.253.123.447.272.585.15.137.331.206.546.206a.794.794 0 0 0 .455-.13.563.563 0 0 0 .24-.372l.826.227a1.22 1.22 0 0 1-.547.76 1.808 1.808 0 0 1-.974.258Zm-.784-2.167h1.533a.666.666 0 0 0-.247-.416.79.79 0 0 0-.516-.168c-.394 0-.652.194-.77.584ZM26.725 39.498c.385 0 .698.112.939.334.24.223.36.535.36.94v2.166h-.941v-1.891c0-.234-.059-.408-.176-.523-.117-.115-.276-.172-.478-.172a.608.608 0 0 0-.478.196c-.117.13-.176.315-.176.554v1.836h-.942v-3.37h.942v.317c.23-.256.546-.385.949-.385v-.002ZM30.452 43.006c-.38 0-.698-.103-.949-.31-.252-.205-.378-.527-.378-.962v-1.362h-.633v-.804h.454c.12-.133.179-.454.179-.963h.942v.963h1.025v.804h-1.025v1.32c0 .35.188.523.564.523.151 0 .293-.027.426-.082l.124.75a2.03 2.03 0 0 1-.73.123ZM33.478 39.498c.193 0 .358.024.495.069l-.137.894a1.552 1.552 0 0 0-.53-.089.736.736 0 0 0-.536.21c-.142.14-.214.343-.214.608v1.747h-.942v-3.37h.942v.316c.23-.256.537-.385.922-.385ZM37.37 42.194c.019 0 .069-.009.152-.027v.79a1.23 1.23 0 0 1-.358.048c-.413 0-.687-.13-.825-.392-.238.261-.584.392-1.038.392-.35 0-.634-.089-.854-.267-.22-.18-.33-.429-.33-.75 0-.297.101-.535.303-.712.202-.176.468-.281.798-.313l1.031-.103v-.069a.504.504 0 0 0-.165-.399.612.612 0 0 0-.42-.144c-.302 0-.49.142-.563.426l-.832-.13c.059-.362.223-.627.492-.794.267-.168.59-.252.966-.252.454 0 .81.11 1.073.33.261.22.392.534.392.942v1.238c0 .124.06.186.18.186h-.002Zm-1.12-.598v-.11l-.778.097a.557.557 0 0 0-.32.12.32.32 0 0 0-.114.252c0 .119.05.208.152.267.1.06.232.088.393.083a.7.7 0 0 0 .48-.2c.124-.123.186-.293.186-.508v-.001ZM38.058 42.937v-4.814H39v4.814h-.942ZM6.314 8.526a4.05 4.05 0 1 0 0-8.102 4.05 4.05 0 0 0 0 8.102Z"/></g><defs><clipPath id="a"><path fill="#fff" d="M0 .424h39v42.582H0z"/></clipPath></defs></svg>