<svg width="321" height="309" viewBox="0 0 321 309" fill="none" xmlns="http://www.w3.org/2000/svg">
<path d="M169.452 253.708C162.352 246.475 150.817 246.45 143.692 253.648L124.185 273.347L116.32 246.823C113.449 237.102 103.215 231.514 93.4826 234.338L66.8948 242.055L73.5953 215.293C76.0606 205.456 70.1532 195.222 60.4132 192.429L33.8851 184.822L54.0731 166.014C61.493 159.106 62.1135 147.305 55.4499 139.657L37.3433 118.845L64.5431 113.664C74.4905 111.764 81.0756 102.143 79.2381 92.1745L74.2008 64.9629L100.513 73.6699C110.139 76.8561 120.398 71.5962 123.451 61.9294L131.759 35.5042L151.161 55.2795C158.262 62.518 169.797 62.5429 176.926 55.3382L196.43 35.6458L204.289 62.1712C207.171 71.8894 217.393 77.4744 227.135 74.643L253.717 66.9275L247.017 93.6895C244.557 103.525 250.46 113.766 260.204 116.552L286.732 124.159L266.546 142.972C259.131 149.879 258.52 161.672 265.168 169.324L283.28 190.134L256.081 195.321C246.127 197.217 239.543 206.844 241.38 216.812L246.415 244.013L220.106 235.316C210.48 232.13 200.219 237.385 197.168 247.057L188.855 273.483L169.452 253.708Z" fill="#FF92E3"/>
<path d="M189.864 277.681L167.863 255.264C164.846 252.194 160.84 250.498 156.572 250.487C152.309 250.476 148.294 252.157 145.27 255.208L123.123 277.578L114.189 247.455C111.668 238.919 102.659 234.001 94.1005 236.477L63.7984 245.273L71.4385 214.759C73.6087 206.092 68.3884 197.035 59.7976 194.57L29.4895 185.883L52.5521 164.393C59.097 158.303 59.6372 147.862 53.7657 141.124L33.1183 117.392L64.1177 111.488C72.8517 109.839 78.657 101.339 77.0424 92.5857L71.3197 61.6838L101.199 71.5717C105.281 72.9228 109.62 72.595 113.416 70.6559C117.217 68.7102 120.021 65.3799 121.32 61.2712L130.738 31.3123L152.739 53.7288C155.756 56.7996 159.763 58.5008 164.03 58.5059C168.298 58.5163 172.314 56.8347 175.336 53.7791L197.479 31.4153L206.408 61.5392C208.94 70.0735 217.945 75.0026 226.5 72.5114L256.798 63.7213L249.158 94.2354C246.989 102.908 252.215 111.964 260.805 114.423L291.107 123.111L268.046 144.607C261.51 150.689 260.964 161.126 266.831 167.871L287.484 191.601L256.486 197.51C247.737 199.169 241.94 207.655 243.556 216.414L249.276 247.305L219.399 237.428C215.312 236.078 210.971 236.401 207.176 238.345C203.381 240.29 200.577 243.62 199.282 247.722L189.852 277.678L189.864 277.681ZM151.804 246.596C153.35 246.226 154.951 246.041 156.584 246.039C162.052 246.049 167.186 248.219 171.04 252.149L187.848 269.277L195.051 246.384C196.704 241.137 200.294 236.875 205.158 234.382C210.023 231.894 215.579 231.473 220.806 233.204L243.549 240.724L239.195 217.22C237.136 206.066 244.536 195.28 255.661 193.144L279.061 188.685L263.49 170.794C256.067 162.258 256.763 149.052 265.031 141.355L282.337 125.22L259.59 118.698C248.726 115.588 242.116 104.135 244.855 93.1573L250.615 70.1474L227.747 76.783C216.855 79.9628 205.378 73.6752 202.154 62.8103L195.358 39.8847L178.502 56.9099C174.631 60.8221 169.493 62.9695 164.023 62.9534C158.555 62.9427 153.421 60.7727 149.568 56.8427L132.759 39.7151L125.561 62.6066C123.905 67.8601 120.309 72.1234 115.444 74.6112C110.579 77.0989 105.028 77.5193 99.8018 75.7884L77.0572 68.2623L81.4132 91.777C83.4712 102.926 76.0805 113.727 64.953 115.853L41.5529 120.311L57.1186 138.203C64.5443 146.728 63.8602 159.936 55.5787 167.647L38.2667 183.779L61.0189 190.3C71.8841 193.415 78.4955 204.873 75.7488 215.841L69.9866 238.846L92.8588 232.204C103.776 229.057 115.236 235.321 118.446 246.195L125.246 269.114L142.106 252.082C144.82 249.342 148.158 247.468 151.799 246.597L151.804 246.596Z" fill="#231F20"/>
<path d="M99.7585 147.169C97.989 147.592 96.2052 147.579 94.4127 147.129C91.5493 146.371 89.1195 144.811 87.1138 142.456C84.5877 139.527 82.8676 136.152 81.9549 132.336C81.4144 130.076 81.2586 127.634 81.485 124.999C81.7113 122.364 82.6485 119.875 84.289 117.522C85.9996 115.061 88.4328 113.431 91.5993 112.629C94.7435 111.922 98.1053 112.29 101.695 113.73L98.7034 121.27C96.4147 120.465 94.716 120.195 93.6127 120.459C91.2249 121.03 89.8732 122.965 89.5618 126.257C89.426 127.574 89.5341 128.968 89.8846 130.434L90.2148 131.673C91.052 134.043 92.0345 135.842 93.165 137.081C94.8159 138.895 96.3662 139.629 97.8107 139.284C98.2584 139.177 98.7203 138.987 99.1963 138.716C100.42 138.085 101.828 136.385 103.414 133.616L110.578 137.442C107.693 142.882 104.084 146.123 99.7612 147.157L99.7585 147.169Z" fill="#231F20"/>
<path d="M113.56 144.275C112.602 140.272 111.362 134.99 109.84 128.44C108.278 121.719 106.84 115.612 105.525 110.116L113.419 108.229L114.077 110.979C115.293 110.034 116.595 109.396 117.975 109.066C119.148 108.786 120.384 108.772 121.679 109.025C123.323 109.399 124.722 110.157 125.874 111.301C127.506 112.94 128.639 115.086 129.276 117.751C129.949 120.565 130.073 123.956 129.649 127.934L121.576 127.093C121.869 123.98 121.787 121.47 121.328 119.551C120.996 118.165 120.54 117.294 119.959 116.937L119.831 116.967C118.509 117.283 117.466 118.953 116.705 121.969C117.813 126.883 119.073 132.295 120.485 138.195L121.478 142.347L113.56 144.275Z" fill="#231F20"/>
<path d="M157.714 134.66L149.602 135.214L149.488 133.889L148.281 134.212C143.084 135.455 139.033 134.868 136.135 132.457C134.939 131.413 134.144 130.115 133.752 128.569C133.333 126.821 133.475 125.244 134.176 123.842C135.484 121.207 137.811 119.084 141.168 117.476C142.889 116.568 144.555 115.877 146.176 115.399C145.862 114.46 145.519 113.595 145.15 112.804C144.238 110.971 143.484 109.89 142.886 109.559C142.1 109.004 141.173 108.853 140.108 109.108C138.082 109.593 137.34 110.965 137.879 113.219C138.047 113.923 138.448 114.796 139.08 115.839L132.112 120.042C131.066 118.308 130.343 116.605 129.941 114.921C129.604 113.513 129.488 112.133 129.593 110.783C129.991 107.735 131.269 105.35 133.419 103.619C134.856 102.464 136.448 101.678 138.191 101.261C138.874 101.098 140.058 100.961 141.745 100.85C143.431 100.74 145.391 101.443 147.619 102.961C149.687 104.54 151.328 106.689 152.545 109.419C153.646 111.95 154.496 114.468 155.098 116.984C156.529 122.97 157.398 128.864 157.706 134.674L157.714 134.66ZM146.529 126.32C147.168 126.167 147.843 125.971 148.552 125.734C148.444 124.903 148.314 124.078 148.163 123.258C148.04 123.31 147.904 123.353 147.755 123.389C146.863 123.715 145.926 124.131 144.943 124.636C143.558 125.351 142.597 125.997 142.06 126.577C143.184 126.849 144.674 126.763 146.523 126.321L146.529 126.32Z" fill="#231F20"/>
<path d="M172.729 129.92L171.986 130.064C170.603 130.124 169.496 129.927 168.666 129.472C167.163 128.749 165.7 127.578 164.277 125.963C159.684 120.801 156.059 113.537 153.391 104.173L161.271 102.086C162.891 107.823 164.879 112.554 167.233 116.269C168.346 118.098 169.376 119.531 170.322 120.562L170.401 120.61C170.979 118.128 171.191 114.725 171.033 110.39C170.895 106.326 170.433 102.65 169.648 99.3668C169.225 97.5973 168.76 96.2207 168.256 95.2426L175.522 91.5778C176.339 93.2982 177.014 95.2724 177.549 97.511C178.45 101.279 178.99 105.466 179.165 110.062C179.602 122.163 177.461 128.783 172.728 129.915L172.729 129.92Z" fill="#231F20"/>
<path d="M198.271 122.73C196.928 123.051 195.555 123.154 194.152 123.039C191.098 122.71 188.484 121.368 186.297 119.007C184.266 116.832 182.817 113.928 181.945 110.282C181.073 106.636 181.219 103.384 182.289 100.13C183.244 97.2423 184.716 94.8675 186.697 92.9962C188.27 91.4704 190.032 90.4742 191.994 90.0051C192.74 89.8266 193.517 89.7309 194.326 89.7179C197.557 89.8466 200.214 91.3187 202.305 94.1262C203.107 95.219 203.649 96.3517 203.928 97.519C203.989 97.7748 204.085 98.3155 204.214 99.1409C204.344 99.9664 204.221 101.055 203.846 102.407C203.038 104.967 201.746 107.102 199.972 108.805C197.635 111.19 195.191 112.867 192.629 113.841L192.668 113.865C193.764 114.865 194.93 115.217 196.167 114.922C196.87 114.753 197.795 114.284 198.941 113.514C200.086 112.745 201.372 111.006 202.794 108.305L210.055 111.972C208.151 115.696 205.826 118.534 203.073 120.499C201.531 121.589 199.934 122.332 198.271 122.73ZM189.625 106.349C191.147 105.737 192.649 104.69 194.142 103.206C195.605 101.594 196.232 100.351 196.023 99.4772C195.921 99.0508 195.601 98.6089 195.063 98.1514C194.71 97.8979 194.437 97.7941 194.245 97.84C194.171 97.8127 194.07 97.8143 193.942 97.8449C193.409 97.9724 192.858 98.307 192.289 98.8489C190.453 100.595 189.531 103.103 189.528 106.367L189.624 106.344L189.625 106.349Z" fill="#231F20"/>
<path d="M111.198 193.84C107.397 195.076 103.716 194.576 100.167 192.342C98.2905 191.163 96.6655 189.669 95.2923 187.862C93.4585 185.472 92.0814 182.871 91.1638 180.048C90.0143 176.514 89.7113 172.867 90.2495 169.11C90.6082 166.792 91.4689 164.643 92.8304 162.655C94.505 160.209 96.9247 158.475 100.087 157.443C104.452 156.021 108.544 156.496 112.35 158.865C116.34 161.365 119.178 165.217 120.872 170.418C122.028 173.979 122.295 177.663 121.663 181.476C120.762 186.38 118.223 190.086 114.042 192.585C113.076 193.115 112.128 193.533 111.191 193.836L111.198 193.84ZM108.328 184.761C110.44 184.076 111.736 182.402 112.234 179.748C112.622 177.694 112.45 175.537 111.719 173.284C110.615 170.223 109.147 168.134 107.32 167.022C106.129 166.191 104.671 166.055 102.951 166.613C101.137 167.205 100.042 168.565 99.6776 170.692C99.3599 172.639 99.5839 174.777 100.339 177.11C101.62 180.629 103.249 183.012 105.234 184.267C106.215 184.951 107.246 185.116 108.329 184.767L108.328 184.761Z" fill="#231F20"/>
<path d="M128.945 190.221C127.443 185.611 125.492 179.529 123.089 171.979C120.623 164.235 118.36 157.197 116.304 150.865L125.396 147.907L126.423 151.071C127.759 149.85 129.23 148.979 130.824 148.457C132.172 148.016 133.623 147.884 135.169 148.06C137.136 148.345 138.845 149.103 140.306 150.337C142.375 152.107 143.905 154.525 144.904 157.593C145.96 160.829 146.42 164.804 146.3 169.51L136.746 169.282C136.795 165.602 136.464 162.661 135.743 160.449C135.226 158.854 134.609 157.875 133.891 157.511L133.744 157.558C132.223 158.051 131.154 160.11 130.543 163.727C132.305 169.397 134.291 175.628 136.502 182.424L138.058 187.208L128.944 190.216L128.945 190.221Z" fill="#231F20"/>
<path d="M172.159 178.679C171.737 177.974 171.325 177.239 170.912 176.481C165.865 178.066 161.354 177.911 157.364 176.002C153.495 174.032 150.897 171.013 149.573 166.94C149.404 166.422 149.264 165.904 149.141 165.37C148.48 161.921 148.751 159 149.952 156.6C151.767 152.999 154.831 150.497 159.15 149.092C159.468 148.987 160.267 148.768 161.54 148.436C160.572 144.79 159.557 140.875 158.493 136.689L167.777 134.322C170.885 146.634 173.445 155.878 175.459 162.062C177.219 167.462 178.817 171.294 180.261 173.564L172.159 178.679ZM167.222 167.627C166.848 166.556 166.466 165.43 166.083 164.253C165.422 162.22 164.76 160.017 164.1 157.656C163.427 157.766 162.762 157.931 162.104 158.145C160.383 158.703 159.233 159.502 158.646 160.533C158.184 161.359 158.187 162.502 158.657 163.95C159.168 165.519 160.155 166.68 161.618 167.423C163.08 168.167 164.946 168.239 167.218 167.633L167.222 167.627Z" fill="#231F20"/>
<path d="M196.059 166.838C194.512 167.343 192.915 167.59 191.257 167.586C187.644 167.487 184.441 166.157 181.652 163.589C179.064 161.228 177.092 157.952 175.727 153.754C174.41 149.707 174.223 145.723 175.174 141.805C176.022 138.328 177.524 135.399 179.681 133.013C181.381 131.074 183.36 129.738 185.62 129.006C186.477 128.728 187.379 128.54 188.326 128.449C192.127 128.295 195.394 129.774 198.108 132.877C199.152 134.087 199.892 135.364 200.332 136.712C200.43 137.004 200.592 137.631 200.821 138.59C201.05 139.549 201.008 140.833 200.698 142.457C199.991 145.533 198.676 148.164 196.749 150.332C194.231 153.351 191.512 155.551 188.601 156.929L188.653 156.956C190.031 158.03 191.433 158.331 192.854 157.867C193.665 157.606 194.707 156.968 195.975 155.955C197.25 154.945 198.592 152.782 200.009 149.473L208.883 153.099C206.996 157.646 204.534 161.205 201.489 163.764C199.783 165.187 197.972 166.212 196.058 166.833L196.059 166.838ZM184.368 148.419C186.096 147.561 187.767 146.186 189.38 144.307C190.946 142.276 191.563 140.759 191.239 139.755C191.076 139.264 190.661 138.777 189.987 138.29C189.547 138.029 189.218 137.928 188.999 138.003C188.909 137.979 188.794 137.99 188.642 138.037C188.029 138.235 187.415 138.68 186.796 139.369C184.804 141.592 183.96 144.617 184.259 148.456L184.368 148.419Z" fill="#231F20"/>
<path d="M213.627 162.665C212.124 158.055 210.174 151.974 207.771 144.423C205.305 136.679 203.041 129.641 200.986 123.309L210.077 120.352L211.104 123.515C212.441 122.294 213.912 121.424 215.506 120.902C216.854 120.461 218.304 120.328 219.851 120.505C221.818 120.789 223.526 121.547 224.988 122.781C227.057 124.551 228.587 126.969 229.586 130.038C230.641 133.273 231.102 137.248 230.982 141.954L221.427 141.726C221.477 138.046 221.145 135.105 220.425 132.894C219.908 131.299 219.291 130.319 218.573 129.956L218.426 130.002C216.904 130.496 215.836 132.554 215.225 136.172C216.986 141.841 218.972 148.072 221.184 154.868L222.739 159.652L213.626 162.66L213.627 162.665Z" fill="#231F20"/>
<path d="M125.845 230.915C124.331 231.277 122.781 231.394 121.195 231.266C117.749 230.896 114.793 229.377 112.324 226.711C110.03 224.256 108.394 220.973 107.41 216.858C106.426 212.744 106.59 209.07 107.796 205.395C108.87 202.135 110.532 199.45 112.776 197.335C114.551 195.615 116.547 194.489 118.759 193.96C119.601 193.759 120.477 193.651 121.392 193.635C125.039 193.783 128.044 195.442 130.403 198.613C131.307 199.845 131.922 201.124 132.238 202.446C132.307 202.734 132.414 203.345 132.564 204.278C132.709 205.213 132.574 206.439 132.149 207.961C131.239 210.85 129.776 213.262 127.775 215.189C125.139 217.881 122.37 219.778 119.482 220.874L119.528 220.902C120.762 222.033 122.079 222.428 123.476 222.094C124.27 221.904 125.315 221.372 126.606 220.505C127.898 219.639 129.35 217.674 130.957 214.619L139.16 218.76C137.01 222.965 134.386 226.173 131.275 228.388C129.536 229.621 127.725 230.46 125.849 230.908L125.845 230.915ZM116.079 212.418C117.796 211.726 119.497 210.547 121.181 208.871C122.831 207.051 123.538 205.648 123.302 204.662C123.187 204.182 122.825 203.683 122.218 203.169C121.817 202.881 121.512 202.763 121.294 202.815C121.208 202.785 121.095 202.784 120.951 202.818C120.348 202.962 119.729 203.341 119.086 203.951C117.016 205.923 115.974 208.753 115.966 212.44L116.073 212.414L116.079 212.418Z" fill="#231F20"/>
<path d="M154.633 224.79L145.753 226.418C143.499 220.624 140.047 212.456 135.392 201.922L143.78 198.237L144.591 200.026C144.715 197.884 145.146 195.656 145.894 193.342C147.318 188.55 150.098 185.659 154.234 184.67C156.589 184.107 158.832 184.387 160.958 185.502C164.02 187.136 166.451 190.189 168.261 194.67C169.155 196.924 169.958 199.527 170.667 202.49C171.376 205.454 172.075 209.225 172.767 213.815C173.026 215.534 173.228 216.709 173.377 217.332L164.453 219.579C164.218 218.593 163.96 217.139 163.676 215.223C163.043 210.974 162.347 207.286 161.599 204.157C160.598 199.973 159.42 196.908 158.066 194.967C157.495 194.185 157.077 193.755 156.803 193.669C156.684 193.596 156.472 193.556 156.167 193.556C155.688 193.67 155.167 194.533 154.611 196.142C153.846 198.692 153.454 202.003 153.437 206.076C153.449 209.966 153.733 214.88 154.293 220.826C154.335 221.12 154.37 221.405 154.386 221.683C154.535 223.275 154.612 224.277 154.607 224.684L154.633 224.79Z" fill="#231F20"/>
<path d="M182.703 230.478L175.104 225.354C176.254 223.681 177.086 222.045 177.594 220.448C178.102 218.85 178.311 216.968 178.227 214.802C178.101 212.037 177.476 208.316 176.361 203.652C175.521 200.14 174.395 195.907 172.98 190.954L181.81 188.459C183.214 193.364 184.365 197.703 185.269 201.482C185.429 202.154 185.788 203.702 186.34 206.128C186.892 208.554 187.247 211.31 187.4 214.4C187.525 217.678 187.183 220.583 186.374 223.115C185.565 225.647 184.344 228.103 182.698 230.48L182.703 230.478ZM176.75 188.672C175.668 188.931 174.569 188.81 173.459 188.315C172.039 187.584 171.149 186.478 170.792 184.986C170.538 183.925 170.665 182.853 171.166 181.769C171.871 180.355 172.982 179.464 174.495 179.102C175.556 178.849 176.629 178.975 177.712 179.477C179.159 180.201 180.055 181.283 180.4 182.728C180.659 183.81 180.536 184.898 180.035 185.982C179.289 187.434 178.191 188.333 176.752 188.677L176.75 188.672Z" fill="#231F20"/>
<path d="M206.231 211.114C202.5 212.006 199.028 211.248 195.804 208.841C194.102 207.569 192.661 206.02 191.485 204.188C189.915 201.769 188.798 199.173 188.135 196.402C187.307 192.937 187.296 189.429 188.098 185.879C188.618 183.693 189.607 181.704 191.059 179.908C192.847 177.7 195.289 176.225 198.397 175.482C202.682 174.457 206.55 175.223 210.013 177.781C213.633 180.477 216.053 184.372 217.274 189.478C218.109 192.969 218.076 196.51 217.184 200.104C215.949 204.721 213.239 208.069 209.051 210.135C208.084 210.569 207.148 210.895 206.231 211.114ZM204.182 202.216C206.25 201.722 207.621 200.222 208.297 197.722C208.826 195.787 208.827 193.718 208.297 191.501C207.475 188.491 206.234 186.388 204.57 185.18C203.491 184.294 202.114 184.049 200.429 184.451C198.649 184.877 197.503 186.092 196.99 188.097C196.54 189.935 196.588 191.997 197.135 194.283C198.092 197.745 199.467 200.149 201.266 201.499C202.151 202.229 203.127 202.469 204.187 202.215L204.182 202.216Z" fill="#231F20"/>
<path d="M230.715 207.4C230.065 205.014 229.302 202.295 228.422 199.249L226.183 191.163L225.558 190.929C222.36 189.479 219.437 186.443 216.779 181.81C214.505 177.93 212.914 174.58 212.011 171.77L220.764 168.95C221.058 169.849 221.543 171.029 222.22 172.496C223.859 176.048 225.586 178.864 227.408 180.947C227.872 181.495 228.276 181.911 228.617 182.185C229.514 181.362 230.3 179.444 230.982 176.429C231.771 172.398 232.062 168.975 231.843 166.149L240.993 165.487C241.275 169.212 240.921 173.528 239.934 178.447C239.023 182.835 237.392 186.267 235.03 188.737L237.585 197.818C238.336 200.439 239.001 202.843 239.58 205.049L230.72 207.399L230.715 207.4Z" fill="#231F20"/>
</svg>
