<svg xmlns="http://www.w3.org/2000/svg" width="258" height="183" viewBox="0 0 258 183" fill="none">
  <path d="M140.545 149.554C65.9176 192.197 -6.21713 166.611 30.8763 110.658C-24.4089 72.5736 32.9802 21.9323 118.124 33.6605C192.741 -8.98097 264.872 16.6061 227.782 72.5582C283.063 110.64 225.682 161.283 140.541 149.554L140.545 149.554Z" fill="#27E0A3"/>
  <path d="M90.5049 170.073C84.5541 171.22 78.7127 171.931 73.0608 172.182C52.9541 173.073 36.2129 168.02 27.1324 158.312C16.209 146.638 16.8722 129.884 28.9641 111.03C10.7119 98.0447 3.84796 82.7484 9.62782 67.8412C14.4352 55.4473 28.0816 44.5134 47.0709 37.8421C67.2231 30.7601 92.3419 28.7627 117.845 32.2087C140.217 19.5018 164.265 11.9823 185.603 11.0372C205.706 10.147 222.448 15.2005 231.527 24.9042C242.451 36.5786 241.791 53.3317 229.696 72.1864C247.948 85.172 254.813 100.472 249.029 115.376C244.221 127.767 230.574 138.7 211.589 145.375C191.437 152.457 166.321 154.453 140.822 151.007C124.374 160.348 107.017 166.888 90.5009 170.071L90.5049 170.073ZM64.7888 36.0041C58.899 37.1391 53.2764 38.6378 48.003 40.488C29.7887 46.8903 16.7558 57.2275 12.2445 68.8571C6.86354 82.7303 13.7627 97.1682 31.6758 109.508L32.8081 110.289L32.0472 111.435C20.0268 129.565 19.008 145.532 29.1774 156.398C37.699 165.506 53.6496 170.237 72.9362 169.381C93.9709 168.448 117.736 160.976 139.85 148.337L140.265 148.098L140.738 148.162C165.968 151.636 190.801 149.708 210.667 142.727C228.879 136.328 241.911 125.988 246.423 114.362C251.806 100.484 244.904 86.0471 226.995 73.7097L225.863 72.9286L226.623 71.7827C238.641 53.6538 239.659 37.6831 229.489 26.8171C220.968 17.7095 205.02 12.9781 185.734 13.834C164.699 14.7664 140.938 22.2377 118.827 34.8767L118.412 35.115L117.939 35.0514C99.4064 32.5 81.0841 32.8639 64.7922 36.0035L64.7888 36.0041Z" fill="#231F20"/>
  <path d="M58.57 108.474C56.9448 108.787 55.3239 108.702 53.7077 108.221C51.1356 107.419 48.9853 105.901 47.2547 103.677C45.0746 100.909 43.6499 97.7701 42.9739 94.262C42.5737 92.1856 42.5311 89.9559 42.842 87.5702C43.1528 85.1844 44.1057 82.9529 45.6977 80.8797C47.3528 78.7134 49.6333 77.3274 52.5472 76.7272C55.4355 76.2128 58.4816 76.6814 61.686 78.1365L58.6564 84.8745C56.6083 84.0517 55.073 83.7353 54.0552 83.9315C51.8601 84.3545 50.5559 86.059 50.1351 89.0431C49.9566 90.2351 50.0012 91.5073 50.2615 92.8576L50.513 93.9985C51.1773 96.1858 52.001 97.8674 52.976 99.0377C54.4046 100.754 55.7838 101.484 57.1138 101.228C57.5243 101.149 57.9523 100.996 58.3971 100.766C59.5345 100.24 60.8839 98.7524 62.4414 96.2988L68.8049 100.069C65.9575 104.904 62.5456 107.704 58.5727 108.47L58.57 108.474Z" fill="#2B2222"/>
  <path d="M90.2697 102.516L82.9165 103.416C82.6326 100.994 82.309 98.8393 81.9468 96.9597C81.1465 92.807 80.1934 90.4537 79.0928 89.8916C78.7152 89.7216 78.1936 89.699 77.5252 89.8278C76.9959 89.9297 76.3358 90.1379 75.5415 90.4528C77.3839 97.6947 78.4425 101.819 78.7167 102.822L71.5082 104.636C69.2096 95.7758 66.7893 85.9922 64.238 75.2908L71.4382 73.5971C72.2421 77.0384 73.0158 80.2496 73.7531 83.2357C74.5139 82.9659 75.2662 82.7612 76.0092 82.618C76.6945 82.4859 77.3686 82.4053 78.0356 82.3788C82.4659 82.3801 85.6158 84.6655 87.4932 89.2405C88.1656 90.9406 88.7372 93.0121 89.2093 95.4616C89.6283 97.6364 89.9791 99.9862 90.2616 102.511L90.2697 102.516Z" fill="#2B2222"/>
  <path d="M102.702 98.7201C99.6652 99.3053 96.8948 98.5689 94.3844 96.5157C93.0564 95.4309 91.9542 94.1303 91.0745 92.6143C89.8959 90.6071 89.0882 88.4791 88.6541 86.2263C88.1108 83.4069 88.2276 80.58 89.0017 77.7496C89.4998 76.0068 90.3659 74.4394 91.5995 73.0441C93.1166 71.3302 95.1389 70.2297 97.6665 69.7426C101.154 69.0705 104.245 69.8261 106.939 72.0093C109.757 74.3093 111.568 77.5354 112.368 81.6881C112.916 84.5278 112.766 87.3823 111.913 90.2454C110.753 93.9208 108.449 96.5182 105.005 98.037C104.214 98.3513 103.445 98.5803 102.699 98.7242L102.702 98.7201ZM101.367 91.4825C103.05 91.1582 104.21 90.0022 104.842 88.0083C105.338 86.4702 105.414 84.8017 105.066 82.9968C104.513 80.5453 103.586 78.8027 102.293 77.7711C101.458 77.0171 100.355 76.7722 98.9807 77.037C97.532 77.3162 96.5658 78.2553 96.0783 79.8518C95.6499 81.3172 95.6145 82.9778 95.9735 84.8404C96.6191 87.6612 97.6425 89.6491 99.0432 90.8007C99.7328 91.4209 100.504 91.6452 101.366 91.4791L101.367 91.4825Z" fill="#2B2222"/>
  <path d="M143.188 92.3501L143.07 92.3729C140.189 92.928 137.593 92.056 135.283 89.7602C134.71 89.2195 133.92 88.2775 132.907 86.928L132.356 88.343C130.708 92.1126 128.382 94.2884 125.386 94.8657C124.308 95.0736 123.228 95.0389 122.136 94.7602C120.683 94.2872 119.645 93.5935 119.022 92.679C117.884 91.1918 117.053 89.107 116.536 86.4233C115.697 82.0738 115.367 77.345 115.54 72.2342C115.56 70.2388 115.69 68.6303 115.918 67.4074L123.171 68.9973C123.072 69.3225 122.991 70.4394 122.934 72.3505C122.876 74.2617 122.91 76.3735 123.042 78.6844C123.171 80.996 123.42 83.091 123.782 84.9706C123.995 85.9641 124.198 86.7096 124.395 87.1995L124.412 87.2877C125.166 86.4528 125.806 85.0803 126.331 83.1704C127.169 79.923 127.405 76.7283 127.043 73.589L134.3 72.1905C134.353 72.4653 134.658 73.3918 135.216 74.9698C135.773 76.5478 136.531 78.2913 137.487 80.2008C138.812 82.7498 140.068 84.3762 141.26 85.0791C141.663 83.3757 141.516 80.7122 140.818 77.0888L140.653 76.2372C139.466 71.0227 138.098 66.4092 136.555 62.3997L143.528 59.8385C145.13 64.0409 146.592 68.9985 147.918 74.7141L148.122 75.7727C148.82 79.3961 149.041 82.4924 148.786 85.0608C148.348 89.1073 146.481 91.5397 143.183 92.3581L143.188 92.3501Z" fill="#2B2222"/>
  <path d="M75.4838 140.859C75.231 140.278 74.9812 139.676 74.7382 139.054C70.7134 139.787 67.2674 139.234 64.393 137.391C61.613 135.51 59.9112 132.942 59.2849 129.692C59.2058 129.281 59.1464 128.863 59.1046 128.445C58.9278 125.738 59.415 123.519 60.5642 121.795C62.2995 119.205 64.8927 117.58 68.3397 116.915C68.5941 116.866 69.2277 116.776 70.2363 116.641C69.8412 113.751 69.4374 110.652 69.0243 107.339L76.3722 106.412C77.5777 116.156 78.6572 123.492 79.6084 128.428C80.4387 132.737 81.2993 135.833 82.1893 137.713L75.4844 140.863L75.4838 140.859ZM72.7528 131.91C72.5664 131.052 72.3823 130.151 72.2012 129.212C71.888 127.587 71.5927 125.835 71.3124 123.961C70.7885 123.981 70.2615 124.04 69.7323 124.142C68.3616 124.406 67.4026 124.908 66.8507 125.64C66.4155 126.231 66.3097 127.106 66.532 128.26C66.7739 129.515 67.4203 130.495 68.4724 131.208C69.5245 131.92 70.9486 132.152 72.7521 131.906L72.7528 131.91Z" fill="#2B2222"/>
  <path d="M94.9517 134.06C93.7167 134.298 92.4642 134.335 91.1948 134.175C88.4323 133.754 86.1039 132.426 84.2093 130.191C82.4511 128.133 81.251 125.43 80.6051 122.078C79.9591 118.726 80.2238 115.772 81.3265 112.857C82.3096 110.271 83.744 108.165 85.6236 106.543C87.1142 105.221 88.7613 104.383 90.5629 104.036C91.2482 103.904 91.9587 103.848 92.6945 103.868C95.6276 104.116 97.9857 105.561 99.7751 108.2C100.462 109.226 100.907 110.276 101.115 111.355C101.16 111.589 101.224 112.087 101.31 112.841C101.395 113.596 101.237 114.583 100.845 115.795C100.006 118.089 98.7443 119.979 97.0595 121.461C94.8379 123.536 92.5443 124.964 90.1752 125.744L90.2116 125.769C91.1658 126.721 92.2115 127.09 93.3481 126.871C93.9927 126.746 94.854 126.359 95.9272 125.702C97.0011 125.048 98.237 123.518 99.6457 121.114L106.106 124.746C104.224 128.054 101.991 130.547 99.4112 132.222C97.9647 133.152 96.4778 133.762 94.951 134.057L94.9517 134.06ZM87.7486 118.812C89.1554 118.315 90.567 117.424 91.9869 116.137C93.3805 114.732 94.0015 113.627 93.8466 112.823C93.7714 112.433 93.4978 112.017 93.0266 111.58C92.7152 111.334 92.4734 111.23 92.2969 111.264C92.2314 111.234 92.1399 111.234 92.0212 111.257C91.5326 111.351 91.017 111.633 90.4777 112.103C88.7391 113.617 87.7991 115.86 87.661 118.832L87.7492 118.815L87.7486 118.812Z" fill="#2B2222"/>
  <path d="M146.915 124.139L139.528 124.862L139.414 123.483C139.234 120.654 138.92 118.075 138.471 115.741C137.863 112.589 137.111 110.366 136.211 109.076C135.708 108.36 135.28 108.038 134.927 108.106L134.833 108.092C134.48 108.16 134.106 108.538 133.71 109.223C132.416 111.362 131.561 115.253 131.146 120.9C131.057 122.866 130.942 124.423 130.797 125.57L123.532 125.812C121.116 114.536 118.701 107.921 116.295 105.968C115.782 105.517 115.29 105.338 114.819 105.429C114.544 105.482 114.284 105.757 114.034 106.252C112.715 108.902 112.994 115.077 114.862 124.77C115.337 127.236 115.679 128.849 115.884 129.601L108.625 131.151L108.449 130.242C108.118 128.74 107.765 127.003 107.384 125.025L106.713 121.375C105.568 115.016 105.518 109.642 106.562 105.253C107.578 101.359 109.869 99.0107 113.429 98.2015C114.82 97.9335 116.182 97.9877 117.513 98.3576C120.963 99.2973 123.836 102.502 126.129 107.971L126.44 107.211C127.354 105.107 128.636 103.435 130.288 102.205C131.158 101.548 132.168 101.111 133.325 100.888C133.796 100.797 134.282 100.745 134.786 100.729C137.94 100.751 140.437 102.118 142.28 104.831C143.732 107.091 144.736 109.505 145.292 112.083L145.719 114.133C146.24 116.837 146.602 119.772 146.808 122.942L146.915 124.139Z" fill="#2B2222"/>
  <path d="M169.189 121.767L161.788 121.944L161.738 120.736L160.628 120.982C155.847 121.903 152.191 121.207 149.651 118.892C148.604 117.894 147.934 116.682 147.642 115.257C147.333 113.653 147.525 112.222 148.217 110.973C149.511 108.63 151.718 106.794 154.833 105.462C156.432 104.707 157.981 104.144 159.476 103.775C159.228 102.908 158.951 102.11 158.648 101.377C157.894 99.6748 157.252 98.6586 156.721 98.335C156.03 97.7962 155.194 97.623 154.214 97.8119C152.351 98.1709 151.621 99.3882 152.021 101.465C152.146 102.113 152.475 102.922 153.007 103.896L146.497 107.434C145.615 105.817 145.029 104.234 144.73 102.687C144.481 101.394 144.432 100.133 144.582 98.9044C145.068 96.1505 146.324 94.0295 148.352 92.5408C149.706 91.5481 151.185 90.8971 152.79 90.5879C153.417 90.4669 154.497 90.3925 156.036 90.36C157.574 90.3274 159.328 91.0451 161.297 92.5165C163.113 94.035 164.52 96.0615 165.514 98.5899C166.413 100.936 167.084 103.266 167.529 105.577C168.59 111.08 169.141 116.48 169.186 121.771L169.189 121.767ZM159.353 113.729C159.94 113.616 160.562 113.464 161.216 113.279C161.151 112.52 161.065 111.763 160.962 111.012C160.847 111.055 160.724 111.09 160.585 111.117C159.762 111.377 158.892 111.717 157.977 112.136C156.691 112.729 155.79 113.279 155.278 113.782C156.289 114.077 157.647 114.058 159.35 113.73L159.353 113.729Z" fill="#2B2222"/>
  <path d="M182.119 117.871L174.907 118.864C173.302 114.116 170.811 107.415 167.437 98.7615L174.326 96.0933L174.915 97.5631C175.091 95.8439 175.522 94.0647 176.202 92.227C177.52 88.4192 179.863 86.1907 183.232 85.5415C185.153 85.1714 186.946 85.4768 188.619 86.4528C191.026 87.8785 192.879 90.4278 194.174 94.0982C194.815 95.9451 195.366 98.0734 195.83 100.482C196.294 102.891 196.723 105.958 197.113 109.679C197.259 111.073 197.382 112.024 197.48 112.533L190.21 114.025C190.055 113.221 189.898 112.044 189.742 110.487C189.384 107.041 188.959 104.048 188.468 101.5C187.811 98.0901 186.972 95.5811 185.951 93.9727C185.52 93.3238 185.197 92.9604 184.977 92.8796C184.884 92.8166 184.715 92.7788 184.466 92.7635C184.072 92.8393 183.625 93.5131 183.118 94.7896C182.41 96.8155 181.978 99.4674 181.819 102.749C181.691 105.881 181.745 109.854 181.983 114.664C182.008 114.902 182.024 115.135 182.025 115.356C182.09 116.645 182.112 117.454 182.094 117.781L182.111 117.869L182.119 117.871Z" fill="#2B2222"/>
  <path d="M213.744 114.216C213.491 113.635 213.241 113.032 212.998 112.41C208.974 113.144 205.528 112.59 202.653 110.748C199.873 108.866 198.171 106.298 197.545 103.048C197.466 102.637 197.407 102.22 197.365 101.802C197.188 99.0949 197.675 96.8757 198.824 95.1518C200.56 92.5619 203.153 90.9361 206.6 90.2719C206.854 90.2229 207.488 90.1324 208.497 89.9979C208.101 87.1077 207.698 84.0081 207.285 80.6957L214.632 79.7688C215.838 89.5121 216.917 96.8482 217.869 101.785C218.699 106.093 219.56 109.189 220.45 111.069L213.745 114.219L213.744 114.216ZM211.013 105.266C210.827 104.408 210.643 103.508 210.461 102.568C210.148 100.943 209.853 99.1913 209.573 97.3171C209.049 97.3371 208.522 97.3964 207.993 97.4984C206.622 97.7625 205.663 98.264 205.111 98.9967C204.676 99.5873 204.57 100.463 204.792 101.616C205.034 102.872 205.681 103.852 206.733 104.564C207.785 105.276 209.209 105.508 211.012 105.263L211.013 105.266Z" fill="#2B2222"/>
  <path d="M179.761 35.1011L152.233 42.3624C147.961 43.1855 145.17 47.3089 145.993 51.5803L155.229 78.707C156.052 82.9784 160.175 85.7694 164.44 84.9476L184.61 81.0608C188.881 80.2377 191.672 76.1142 190.849 71.8428L188.98 41.3438C188.158 37.0792 184.033 34.2814 179.762 35.1045L179.761 35.1011ZM169.818 71.9546C169.258 73.7233 168.156 74.9597 166.508 75.6854C166.129 75.8359 165.757 75.9498 165.404 76.0178C163.945 76.2989 162.62 75.942 161.417 74.9598C160.783 74.4417 160.254 73.8186 159.833 73.094C159.268 72.1332 158.882 71.1134 158.674 70.0345C158.414 68.6842 158.47 67.3327 158.842 65.9801C159.082 65.1388 159.493 64.3909 160.09 63.7235C160.811 62.9019 161.786 62.3761 162.991 62.144C164.66 61.8224 166.141 62.1845 167.433 63.2303C168.786 64.3349 169.653 65.8744 170.036 67.8626C170.299 69.2264 170.223 70.5886 169.819 71.9614L169.818 71.9546ZM184.301 70.346C184.373 71.0146 184.427 71.4758 184.474 71.7201L180.998 72.4322C180.923 72.0455 180.85 71.4825 180.77 70.7379C180.6 69.0887 180.394 67.6541 180.158 66.4327C179.843 64.7974 179.443 63.5972 178.956 62.8254C178.748 62.5136 178.595 62.339 178.49 62.3031C178.442 62.277 178.361 62.2574 178.247 62.2512C178.057 62.2878 177.845 62.6102 177.597 63.2211C177.263 64.1932 177.051 65.4622 176.973 67.0324C176.918 68.535 176.939 70.4345 177.053 72.742C177.067 72.8519 177.074 72.963 177.074 73.0688C177.102 73.6897 177.113 74.0746 177.108 74.2304L177.117 74.2779L173.665 74.7531C172.896 72.477 171.7 69.2661 170.085 65.1226L173.382 63.8467L173.666 64.5521C173.746 63.7273 173.956 62.8777 174.285 61.9943C174.912 60.1705 176.033 59.1064 177.648 58.7952C178.571 58.6173 179.426 58.7622 180.228 59.2341C181.38 59.9198 182.268 61.1315 182.89 62.8977C183.194 63.7822 183.461 64.8005 183.683 65.9506C183.904 67.1007 184.111 68.574 184.299 70.3534L184.301 70.346ZM181.601 53.9975C181.203 54.9258 180.255 55.4883 179.309 55.8185C177.498 56.4631 175.539 56.5028 173.609 56.6072C169.087 56.8593 164.585 57.544 160.188 58.6447C159.529 58.8068 158.845 58.9809 158.175 58.8847C156.279 58.6098 156.421 56.6084 157.852 55.8189C159.346 54.9891 162.244 55.0711 163.922 54.7407C169.139 53.7142 174.353 52.6883 179.578 51.6604C179.903 51.5976 180.243 51.5323 180.571 51.5956C181.557 51.7787 181.998 53.0801 181.604 53.9969L181.601 53.9975ZM181.503 46.0781C181.467 47.7177 180.264 49.1424 178.82 49.9204C177.379 50.6976 175.721 50.9469 174.098 51.1821C171.719 51.528 169.337 51.8744 166.958 52.2202C165.431 52.4372 163.901 52.6616 162.355 52.6006C160.71 52.5375 159.077 52.1486 157.578 51.4591C156.884 51.1425 156.111 50.4893 156.375 49.7769C157.52 46.7729 163.08 46.7395 165.714 46.1826C169.782 45.3283 173.868 44.5269 177.964 43.7798C178.828 43.6273 179.779 43.4862 180.514 43.9569C181.209 44.386 181.525 45.261 181.499 46.0719L181.503 46.0781ZM163.626 65.639C162.927 65.7736 162.464 66.2217 162.231 66.9844C162.028 67.685 162.013 68.4831 162.184 69.3687C162.494 70.7234 162.98 71.6748 163.65 72.2284C163.981 72.5234 164.353 72.6277 164.767 72.5479C165.574 72.3923 166.13 71.8419 166.427 70.8838C166.666 70.1482 166.701 69.3462 166.536 68.4878C166.274 67.3137 165.825 66.4818 165.209 65.9882C164.809 65.629 164.28 65.5128 163.622 65.6396L163.626 65.639Z" fill="#2B2222"/>
</svg>