<svg xmlns="http://www.w3.org/2000/svg" width="194" height="196" viewBox="0 0 194 196" fill="none">
  <path d="M47.7104 48.1057C53.3516 42.4317 66.6751 45.7176 72.6308 41.0312C78.969 36.0503 79.112 22.2819 85.5825 18.4861C92.6143 14.3599 104.522 21.1579 111.44 18.5112C119.172 15.5485 123.948 2.6169 131.151 1.59702C139.477 0.42272 146.874 11.7348 153.916 13.3041C161.856 15.0745 173.993 9.09529 179.466 14.5825C184.939 20.0698 179.001 32.276 180.778 40.2519C182.351 47.3228 193.622 54.7421 192.464 63.1058C191.459 70.3455 178.59 75.1576 175.655 82.9288C173.027 89.8776 179.809 101.825 175.719 108.896C171.948 115.403 158.242 115.565 153.291 121.939C148.636 127.929 151.928 141.313 146.28 146.987C140.639 152.661 127.316 149.375 121.36 154.062C115.022 159.043 114.879 172.811 108.408 176.61C101.38 180.733 89.4684 173.935 82.5511 176.585C74.8186 179.548 70.0462 192.48 62.8393 193.5C54.517 194.674 47.117 183.358 40.0781 181.789C32.1419 180.018 20.0016 185.998 14.5321 180.51C9.05897 175.023 14.9969 162.813 13.2237 154.841C11.6472 147.77 0.379207 140.351 1.53746 131.991C2.542 124.747 15.4115 119.939 18.3464 112.168C20.974 105.215 14.1925 93.2712 18.2821 86.2003C22.05 79.6968 35.7596 79.5316 40.7108 73.1573C45.3581 67.1638 42.0729 53.7868 47.7176 48.1093L47.7104 48.1057Z" fill="#FF0000"/>
  <path d="M61.5878 195.045C56.7296 195.045 52.4147 191.662 48.2285 188.38C45.2221 186.024 42.3801 183.794 39.7633 183.212C36.8068 182.551 32.9889 183.094 29.296 183.618C23.3868 184.455 17.2738 185.324 13.5058 181.546C9.73437 177.764 10.5888 171.62 11.4181 165.677C11.9329 161.967 12.4691 158.128 11.8078 155.162C11.2215 152.533 9.00155 149.685 6.65286 146.665C3.05655 142.051 -0.661339 137.274 0.100107 131.791C0.70426 127.442 4.6366 124.185 8.80489 120.734C12.2082 117.915 15.7259 114.999 16.9914 111.652C18.0567 108.836 17.3239 104.854 16.5481 100.638C15.565 95.287 14.5497 89.7567 17.0271 85.4689C19.2328 81.6659 24.1697 79.8632 28.9493 78.1179C33.114 76.5988 37.4181 75.0259 39.5666 72.2607C41.5006 69.7685 41.8974 65.5992 42.3193 61.1857C42.8233 55.9068 43.3417 50.4483 46.6913 47.0798C50.0338 43.7149 55.464 43.1834 60.7119 42.6735C65.109 42.2461 69.263 41.8403 71.744 39.8868C74.4931 37.7249 76.0517 33.4012 77.5567 29.2175C79.287 24.4162 81.0744 19.4497 84.8601 17.2304C89.1214 14.7309 94.6338 15.7436 99.964 16.724C104.164 17.4961 108.129 18.2251 110.932 17.1514C114.263 15.8765 117.163 12.3357 119.965 8.91332C123.394 4.72607 126.632 0.768647 130.958 0.158156C136.413 -0.613936 141.171 3.11365 145.772 6.71914C148.779 9.07492 151.617 11.3014 154.238 11.8868C157.194 12.5475 161.012 12.0053 164.705 11.481C170.614 10.6442 176.727 9.77519 180.495 13.5566C184.263 17.3345 183.408 23.4789 182.583 29.4186C182.068 33.1283 181.532 36.9672 182.193 39.937C182.779 42.5657 184.999 45.4171 187.348 48.4372C190.944 53.0518 194.659 57.828 193.901 63.3117C193.297 67.6569 189.364 70.9177 185.2 74.3687C181.796 77.1878 178.275 80.1038 177.013 83.4507C175.948 86.2661 176.681 90.2487 177.456 94.4647C178.439 99.8155 179.455 105.346 176.977 109.634C174.772 113.437 169.831 115.243 165.055 116.985C160.89 118.504 156.586 120.077 154.441 122.842C152.504 125.334 152.107 129.507 151.685 133.924C151.181 139.203 150.663 144.658 147.313 148.026C143.971 151.391 138.54 151.919 133.292 152.433C128.895 152.864 124.741 153.266 122.26 155.219C119.511 157.381 117.953 161.705 116.448 165.889C114.717 170.69 112.93 175.656 109.144 177.879C104.883 180.379 99.3705 179.366 94.044 178.386C89.8435 177.614 85.8754 176.885 83.0727 177.958C79.7409 179.233 76.8417 182.774 74.039 186.196C70.6107 190.384 67.3719 194.341 63.0427 194.955C62.553 195.023 62.0704 195.056 61.5914 195.056L61.5878 195.045ZM36.5852 179.994C37.9079 179.994 39.1877 180.102 40.3924 180.368C43.6491 181.093 46.7414 183.517 50.0124 186.081C54.1342 189.313 58.3954 192.653 62.6352 192.057C65.8419 191.601 68.7339 188.071 71.794 184.333C74.8362 180.616 77.9821 176.773 82.0325 175.222C85.593 173.857 90.151 174.698 94.5588 175.506C99.3706 176.389 104.343 177.305 107.675 175.348C110.553 173.66 112.086 169.397 113.713 164.883C115.357 160.312 117.063 155.586 120.466 152.91C123.612 150.436 128.388 149.969 133.003 149.517C137.743 149.053 142.644 148.576 145.254 145.951C147.867 143.322 148.335 138.395 148.789 133.629C149.233 128.993 149.687 124.199 152.146 121.035C154.806 117.609 159.507 115.893 164.058 114.234C168.548 112.593 172.788 111.045 174.464 108.154C176.402 104.8 175.487 99.8083 174.596 94.9782C173.785 90.5539 172.941 85.9753 174.296 82.4021C175.833 78.3333 179.655 75.166 183.348 72.1063C187.066 69.0251 190.576 66.1199 191.023 62.8951C191.613 58.636 188.281 54.3554 185.06 50.2184C182.504 46.9361 180.087 43.8334 179.358 40.5619C178.582 37.0749 179.151 32.9703 179.705 29.0021C180.466 23.5292 181.185 18.358 178.439 15.6036C175.694 12.8492 170.55 13.5818 165.102 14.3539C161.155 14.9141 157.072 15.4923 153.601 14.7202C150.341 13.9912 147.252 11.5707 143.981 9.00669C139.859 5.77467 135.598 2.43493 131.355 3.03465C128.148 3.48713 125.256 7.0172 122.196 10.7556C119.154 14.4724 116.008 18.3149 111.958 19.8662C108.401 21.2309 103.843 20.3906 99.4349 19.5825C94.6231 18.6991 89.6505 17.7834 86.3151 19.7406C83.4374 21.4284 81.9038 25.6911 80.2772 30.2051C78.6328 34.7766 76.9275 39.5025 73.5243 42.1779C70.3784 44.6522 65.6023 45.119 60.9872 45.5715C56.2469 46.0348 51.3458 46.5124 48.7361 49.1375C46.1229 51.7662 45.651 56.6932 45.197 61.4622C44.7538 66.0984 44.2998 70.8889 41.8439 74.0527C39.1842 77.4787 34.4796 79.1952 29.9324 80.8579C25.4424 82.4955 21.2025 84.0468 19.5259 86.9377C17.5848 90.2918 18.5035 95.2835 19.3901 100.114C20.2016 104.538 21.0452 109.113 19.6903 112.69C18.1531 116.758 14.3316 119.926 10.6388 122.985C6.92094 126.063 3.41044 128.972 2.96358 132.197C2.37372 136.459 5.70552 140.736 8.92647 144.873C11.4825 148.156 13.8991 151.258 14.6284 154.526C15.4041 158.01 14.8321 162.114 14.2816 166.082C13.5202 171.559 12.8016 176.73 15.5471 179.485C18.2926 182.235 23.4369 181.506 28.8814 180.734C31.4589 180.368 34.0935 179.994 36.578 179.994H36.5852Z" fill="#231F20"/>
  <path d="M91.8743 107.183C106.549 121.925 130.422 121.925 145.097 107.183C159.772 92.4414 159.772 68.4598 145.097 53.7183C130.422 38.9767 106.549 38.9767 91.8743 53.7183C77.1995 68.4598 77.1995 92.4414 91.8743 107.183ZM142.673 56.1531C156.011 69.5515 156.011 91.3497 142.673 104.748C129.335 118.147 107.636 118.147 94.298 104.748C80.9602 91.3497 80.9602 69.5515 94.298 56.1531C107.636 42.7546 129.335 42.7546 142.673 56.1531Z" fill="white"/>
  <path d="M119.157 109.054C125.531 109.054 131.162 107.496 136.048 104.375C140.935 101.254 144.11 96.7652 145.568 90.9045L132.688 87.1626C131.93 89.8775 130.35 92.0609 127.948 93.7128C125.546 95.3683 122.614 96.1943 119.157 96.1943C114.782 96.1943 111.203 94.6896 108.422 91.6766C105.641 88.6637 104.25 84.6919 104.25 79.7541C104.25 74.8163 105.641 70.9127 108.422 67.8711C111.203 64.833 114.782 63.3139 119.157 63.3139C122.614 63.3139 125.542 64.1435 127.948 65.7954C130.35 67.4509 131.905 69.6343 132.606 72.3456L145.568 68.6036C144.11 62.7429 140.935 58.254 136.048 55.1333C131.158 52.0126 125.528 50.4541 119.157 50.4541C110.892 50.4541 104.036 53.169 98.5804 58.5916C93.1251 64.0178 90.3975 71.0707 90.3975 79.7505C90.3975 88.4302 93.1251 95.4186 98.5804 100.87C104.036 106.321 110.896 109.05 119.157 109.05V109.054Z" fill="white"/>
  <path d="M98.552 121.515C96.1461 117.852 91.0626 109.74 77.7141 100.582C64.3656 91.4251 43.3633 116.118 43.3633 116.118C54.7599 109.901 59.4072 109.812 63.429 113.679C70.9183 120.876 43.2274 154.916 43.7136 154.424C44.1998 153.932 78.9439 132.192 84.7137 135.09C93.8296 139.668 83.4124 155.695 83.4124 155.695C101.001 138.038 103.6 129.204 98.552 121.515Z" fill="white"/>
</svg>